<svg xmlns="http://www.w3.org/2000/svg" xmlns:xlink="http://www.w3.org/1999/xlink" width="300" zoomAndPan="magnify" viewBox="0 0 224.87999 33.749998" height="45" preserveAspectRatio="xMidYMid meet" version="1.0"><defs><g/></defs><g fill="#00bf63" fill-opacity="1"><g transform="translate(0.895228, 29.860209)"><g><path d="M 1.203125 -25.078125 L 11.46875 -25.078125 C 12.320312 -25.078125 13 -25.066406 13.5 -25.046875 C 14 -25.035156 14.398438 -25.007812 14.703125 -24.96875 C 15.003906 -24.9375 15.238281 -24.882812 15.40625 -24.8125 C 15.582031 -24.738281 15.773438 -24.640625 15.984375 -24.515625 C 16.984375 -23.859375 17.484375 -22.425781 17.484375 -20.21875 L 17.484375 -18.609375 C 17.484375 -17.984375 17.472656 -17.457031 17.453125 -17.03125 C 17.441406 -16.601562 17.410156 -16.238281 17.359375 -15.9375 C 17.316406 -15.632812 17.25 -15.367188 17.15625 -15.140625 C 17.070312 -14.921875 16.953125 -14.695312 16.796875 -14.46875 C 16.503906 -13.96875 16.132812 -13.597656 15.6875 -13.359375 C 15.25 -13.117188 14.617188 -12.953125 13.796875 -12.859375 C 14.546875 -12.628906 15.160156 -12.394531 15.640625 -12.15625 C 16.117188 -11.914062 16.492188 -11.613281 16.765625 -11.25 C 17.046875 -10.894531 17.234375 -10.460938 17.328125 -9.953125 C 17.429688 -9.453125 17.484375 -8.828125 17.484375 -8.078125 L 17.484375 -4.203125 C 17.484375 -2.679688 17.65625 -1.28125 18 0 L 11.28125 0 C 11.082031 -0.65625 10.941406 -1.28125 10.859375 -1.875 C 10.785156 -2.476562 10.75 -3.253906 10.75 -4.203125 L 10.75 -7.5625 C 10.75 -8.363281 10.597656 -8.9375 10.296875 -9.28125 C 9.992188 -9.632812 9.492188 -9.8125 8.796875 -9.8125 L 7.9375 -9.8125 L 7.9375 0 L 1.203125 0 Z M 8.875 -15.265625 C 9.644531 -15.265625 10.15625 -15.398438 10.40625 -15.671875 C 10.664062 -15.953125 10.796875 -16.53125 10.796875 -17.40625 C 10.796875 -18.226562 10.65625 -18.800781 10.375 -19.125 C 10.101562 -19.457031 9.601562 -19.625 8.875 -19.625 L 7.9375 -19.625 L 7.9375 -15.265625 Z M 8.875 -15.265625 "/></g></g></g><g fill="#00bf63" fill-opacity="1"><g transform="translate(19.575895, 29.860209)"><g><path d="M 1.203125 -19.96875 C 1.203125 -21.0625 1.296875 -21.941406 1.484375 -22.609375 C 1.671875 -23.273438 1.96875 -23.785156 2.375 -24.140625 C 2.769531 -24.484375 3.382812 -24.722656 4.21875 -24.859375 C 5.0625 -25.003906 6.3125 -25.078125 7.96875 -25.078125 L 10.71875 -25.078125 C 12.375 -25.078125 13.617188 -25.003906 14.453125 -24.859375 C 15.296875 -24.722656 15.914062 -24.484375 16.3125 -24.140625 C 16.71875 -23.785156 17.015625 -23.273438 17.203125 -22.609375 C 17.390625 -21.941406 17.484375 -21.0625 17.484375 -19.96875 L 17.484375 0 L 10.75 0 L 10.75 -5.296875 L 7.9375 -5.296875 L 7.9375 0 L 1.203125 0 Z M 10.75 -10.859375 L 10.75 -17.484375 C 10.75 -19.035156 10.273438 -19.8125 9.328125 -19.8125 C 8.398438 -19.8125 7.9375 -19.035156 7.9375 -17.484375 L 7.9375 -10.859375 Z M 10.75 -10.859375 "/></g></g></g><g fill="#00bf63" fill-opacity="1"><g transform="translate(38.294144, 29.860209)"><g><path d="M 1.203125 -25.078125 L 10.671875 -25.078125 C 11.347656 -25.078125 11.875 -25.066406 12.25 -25.046875 C 12.625 -25.035156 12.914062 -25.03125 13.125 -25.03125 C 13.34375 -25.03125 13.492188 -25.023438 13.578125 -25.015625 C 13.671875 -25.003906 13.78125 -24.988281 13.90625 -24.96875 C 15.382812 -24.738281 16.390625 -24.082031 16.921875 -23 C 17.117188 -22.582031 17.265625 -21.8125 17.359375 -20.6875 C 17.460938 -19.570312 17.515625 -18.226562 17.515625 -16.65625 L 17.515625 -9.890625 C 17.515625 -8.609375 17.476562 -7.363281 17.40625 -6.15625 C 17.332031 -4.957031 17.234375 -3.992188 17.109375 -3.265625 C 16.753906 -1.265625 15.648438 -0.203125 13.796875 -0.078125 C 13.722656 -0.078125 13.484375 -0.0664062 13.078125 -0.046875 C 12.679688 -0.0351562 11.878906 -0.0195312 10.671875 0 L 1.203125 0 Z M 9.140625 -5.53125 C 9.835938 -5.53125 10.285156 -5.664062 10.484375 -5.9375 C 10.691406 -6.21875 10.796875 -6.804688 10.796875 -7.703125 L 10.796875 -17.40625 C 10.796875 -18.332031 10.691406 -18.929688 10.484375 -19.203125 C 10.285156 -19.484375 9.835938 -19.625 9.140625 -19.625 L 7.9375 -19.625 L 7.9375 -5.53125 Z M 9.140625 -5.53125 "/></g></g></g><g fill="#00bf63" fill-opacity="1"><g transform="translate(56.786881, 29.860209)"><g><path d="M 1.203125 -25.078125 L 7.9375 -25.078125 L 7.9375 -15.265625 L 10.796875 -15.265625 L 10.796875 -25.078125 L 17.515625 -25.078125 L 17.515625 0 L 10.796875 0 L 10.796875 -9.8125 L 7.9375 -9.8125 L 7.9375 0 L 1.203125 0 Z M 1.203125 -25.078125 "/></g></g></g><g fill="#00bf63" fill-opacity="1"><g transform="translate(75.505129, 29.860209)"><g><path d="M 1.203125 -25.078125 L 7.9375 -25.078125 L 7.9375 0 L 1.203125 0 Z M 1.203125 -25.078125 "/></g></g></g><g fill="#00bf63" fill-opacity="1"><g transform="translate(84.638737, 29.860209)"><g><path d="M 1.203125 -25.078125 L 7.9375 -25.078125 L 7.9375 -15.265625 L 8.90625 -15.265625 C 9.28125 -15.265625 9.585938 -15.3125 9.828125 -15.40625 C 10.066406 -15.507812 10.253906 -15.691406 10.390625 -15.953125 C 10.523438 -16.222656 10.617188 -16.59375 10.671875 -17.0625 C 10.722656 -17.539062 10.75 -18.15625 10.75 -18.90625 L 10.75 -21.796875 C 10.75 -22.523438 10.789062 -23.117188 10.875 -23.578125 C 10.96875 -24.046875 11.113281 -24.546875 11.3125 -25.078125 L 18 -25.078125 C 17.875 -24.773438 17.78125 -24.5 17.71875 -24.25 C 17.65625 -24 17.601562 -23.726562 17.5625 -23.4375 C 17.53125 -23.144531 17.507812 -22.816406 17.5 -22.453125 C 17.488281 -22.097656 17.484375 -21.644531 17.484375 -21.09375 L 17.484375 -18.125 C 17.484375 -17.539062 17.46875 -17.054688 17.4375 -16.671875 C 17.414062 -16.285156 17.375 -15.945312 17.3125 -15.65625 C 17.25 -15.363281 17.15625 -15.117188 17.03125 -14.921875 C 16.90625 -14.722656 16.742188 -14.507812 16.546875 -14.28125 C 16.367188 -14.082031 16.191406 -13.914062 16.015625 -13.78125 C 15.835938 -13.644531 15.628906 -13.523438 15.390625 -13.421875 C 15.148438 -13.316406 14.875 -13.21875 14.5625 -13.125 C 14.25 -13.039062 13.867188 -12.960938 13.421875 -12.890625 L 12.9375 -12.78125 L 13.71875 -12.671875 C 15.125 -12.421875 16.101562 -11.957031 16.65625 -11.28125 C 17.207031 -10.601562 17.484375 -9.523438 17.484375 -8.046875 L 17.484375 -4.515625 C 17.484375 -3.910156 17.488281 -3.40625 17.5 -3 C 17.507812 -2.601562 17.53125 -2.238281 17.5625 -1.90625 C 17.601562 -1.582031 17.65625 -1.273438 17.71875 -0.984375 C 17.78125 -0.703125 17.875 -0.375 18 0 L 11.546875 0 C 11.367188 -0.300781 11.226562 -0.585938 11.125 -0.859375 C 11.03125 -1.140625 10.953125 -1.4375 10.890625 -1.75 C 10.828125 -2.0625 10.785156 -2.429688 10.765625 -2.859375 C 10.753906 -3.285156 10.75 -3.800781 10.75 -4.40625 L 10.75 -6.6875 C 10.75 -7.84375 10.601562 -8.648438 10.3125 -9.109375 C 10.03125 -9.578125 9.523438 -9.8125 8.796875 -9.8125 L 7.9375 -9.8125 L 7.9375 0 L 1.203125 0 Z M 1.203125 -25.078125 "/></g></g></g><g fill="#00bf63" fill-opacity="1"><g transform="translate(103.319404, 29.860209)"><g><path d="M 1.203125 -19.96875 C 1.203125 -21.0625 1.296875 -21.941406 1.484375 -22.609375 C 1.671875 -23.273438 1.96875 -23.785156 2.375 -24.140625 C 2.769531 -24.484375 3.382812 -24.722656 4.21875 -24.859375 C 5.0625 -25.003906 6.3125 -25.078125 7.96875 -25.078125 L 10.71875 -25.078125 C 12.375 -25.078125 13.617188 -25.003906 14.453125 -24.859375 C 15.296875 -24.722656 15.914062 -24.484375 16.3125 -24.140625 C 16.71875 -23.785156 17.015625 -23.273438 17.203125 -22.609375 C 17.390625 -21.941406 17.484375 -21.0625 17.484375 -19.96875 L 17.484375 0 L 10.75 0 L 10.75 -5.296875 L 7.9375 -5.296875 L 7.9375 0 L 1.203125 0 Z M 10.75 -10.859375 L 10.75 -17.484375 C 10.75 -19.035156 10.273438 -19.8125 9.328125 -19.8125 C 8.398438 -19.8125 7.9375 -19.035156 7.9375 -17.484375 L 7.9375 -10.859375 Z M 10.75 -10.859375 "/></g></g></g><g fill="#00bf63" fill-opacity="1"><g transform="translate(122.037652, 29.860209)"><g><path d="M 0.640625 -5.453125 L 6.921875 -5.453125 L 6.921875 -9.8125 L 5.859375 -9.8125 C 4.554688 -9.8125 3.578125 -9.921875 2.921875 -10.140625 C 2.273438 -10.367188 1.773438 -10.785156 1.421875 -11.390625 C 1.253906 -11.660156 1.113281 -11.945312 1 -12.25 C 0.882812 -12.550781 0.785156 -12.898438 0.703125 -13.296875 C 0.628906 -13.703125 0.582031 -14.179688 0.5625 -14.734375 C 0.539062 -15.285156 0.53125 -15.9375 0.53125 -16.6875 L 0.53125 -18.234375 C 0.53125 -21.335938 1.039062 -23.328125 2.0625 -24.203125 C 2.289062 -24.378906 2.523438 -24.53125 2.765625 -24.65625 C 3.003906 -24.78125 3.3125 -24.867188 3.6875 -24.921875 C 4.0625 -24.972656 4.539062 -25.007812 5.125 -25.03125 C 5.71875 -25.0625 6.46875 -25.078125 7.375 -25.078125 L 13.15625 -25.078125 L 13.15625 -19.625 L 7.25 -19.625 L 7.25 -15.265625 L 8.453125 -15.265625 C 9.535156 -15.265625 10.425781 -15.171875 11.125 -14.984375 C 11.832031 -14.796875 12.382812 -14.453125 12.78125 -13.953125 C 13.1875 -13.453125 13.460938 -12.765625 13.609375 -11.890625 C 13.753906 -11.023438 13.828125 -9.929688 13.828125 -8.609375 L 13.828125 -7.0625 C 13.828125 -5.5625 13.738281 -4.347656 13.5625 -3.421875 C 13.394531 -2.492188 13.125 -1.789062 12.75 -1.3125 C 12.394531 -0.882812 12 -0.570312 11.5625 -0.375 C 11.125 -0.175781 10.53125 -0.0507812 9.78125 0 L 0.640625 0 Z M 0.640625 -5.453125 "/></g></g></g><g fill="#ffffff" fill-opacity="1"><g transform="translate(137.472536, 16.703716)"><g><path d="M 6.921875 -11.578125 L 6.921875 -9.609375 L 4.59375 -9.609375 L 4.59375 0 L 2.328125 0 L 2.328125 -9.609375 L 0 -9.609375 L 0 -11.578125 Z M 6.921875 -11.578125 "/></g></g></g><g fill="#ffffff" fill-opacity="1"><g transform="translate(144.397682, 16.703716)"><g><path d="M 5.453125 -5.609375 C 5.179688 -5.785156 4.882812 -5.875 4.5625 -5.875 C 4.007812 -5.875 3.597656 -5.6875 3.328125 -5.3125 C 3.054688 -4.945312 2.921875 -4.332031 2.921875 -3.46875 L 2.921875 0 L 0.765625 0 L 0.765625 -7.546875 L 2.921875 -7.546875 L 2.921875 -6.765625 L 2.953125 -6.765625 C 3.160156 -7.085938 3.421875 -7.335938 3.734375 -7.515625 C 4.054688 -7.691406 4.421875 -7.78125 4.828125 -7.78125 C 5.117188 -7.769531 5.414062 -7.710938 5.71875 -7.609375 Z M 5.453125 -5.609375 "/></g></g></g><g fill="#ffffff" fill-opacity="1"><g transform="translate(150.032997, 16.703716)"><g><path d="M 5.78125 -7.546875 L 7.890625 -7.546875 L 7.890625 0 L 5.78125 0 L 5.78125 -0.6875 L 5.75 -0.6875 C 5.519531 -0.394531 5.21875 -0.164062 4.84375 0 C 4.46875 0.164062 4.085938 0.25 3.703125 0.25 C 2.710938 0.25 1.882812 -0.140625 1.21875 -0.921875 C 0.5625 -1.710938 0.234375 -2.675781 0.234375 -3.8125 C 0.234375 -4.519531 0.375 -5.175781 0.65625 -5.78125 C 0.945312 -6.382812 1.351562 -6.867188 1.875 -7.234375 C 2.40625 -7.597656 3.003906 -7.78125 3.671875 -7.78125 C 4.054688 -7.78125 4.4375 -7.695312 4.8125 -7.53125 C 5.1875 -7.375 5.507812 -7.140625 5.78125 -6.828125 Z M 4.171875 -5.875 C 3.691406 -5.875 3.273438 -5.664062 2.921875 -5.25 C 2.578125 -4.84375 2.40625 -4.351562 2.40625 -3.78125 C 2.40625 -3.207031 2.578125 -2.707031 2.921875 -2.28125 C 3.273438 -1.863281 3.695312 -1.65625 4.1875 -1.65625 C 4.695312 -1.65625 5.125 -1.863281 5.46875 -2.28125 C 5.8125 -2.695312 5.984375 -3.195312 5.984375 -3.78125 C 5.984375 -4.363281 5.804688 -4.859375 5.453125 -5.265625 C 5.109375 -5.671875 4.679688 -5.875 4.171875 -5.875 Z M 4.171875 -5.875 "/></g></g></g><g fill="#ffffff" fill-opacity="1"><g transform="translate(158.70862, 16.703716)"><g><path d="M 7.90625 -13.03125 L 7.90625 0 L 5.765625 0 L 5.765625 -0.703125 L 5.734375 -0.703125 C 5.503906 -0.398438 5.203125 -0.164062 4.828125 0 C 4.460938 0.164062 4.085938 0.25 3.703125 0.25 C 2.710938 0.25 1.882812 -0.140625 1.21875 -0.921875 C 0.5625 -1.703125 0.234375 -2.664062 0.234375 -3.8125 C 0.234375 -4.90625 0.5625 -5.835938 1.21875 -6.609375 C 1.882812 -7.390625 2.703125 -7.78125 3.671875 -7.78125 C 4.054688 -7.78125 4.4375 -7.695312 4.8125 -7.53125 C 5.1875 -7.375 5.492188 -7.144531 5.734375 -6.84375 L 5.765625 -6.84375 L 5.765625 -13.03125 Z M 4.171875 -5.875 C 3.691406 -5.875 3.273438 -5.664062 2.921875 -5.25 C 2.578125 -4.84375 2.40625 -4.351562 2.40625 -3.78125 C 2.40625 -3.195312 2.578125 -2.695312 2.921875 -2.28125 C 3.273438 -1.863281 3.695312 -1.65625 4.1875 -1.65625 C 4.707031 -1.65625 5.132812 -1.867188 5.46875 -2.296875 C 5.800781 -2.734375 5.96875 -3.226562 5.96875 -3.78125 C 5.96875 -4.351562 5.796875 -4.84375 5.453125 -5.25 C 5.109375 -5.664062 4.679688 -5.875 4.171875 -5.875 Z M 4.171875 -5.875 "/></g></g></g><g fill="#ffffff" fill-opacity="1"><g transform="translate(167.384242, 16.703716)"><g><path d="M 2.5 -3.421875 C 2.5 -2.796875 2.628906 -2.300781 2.890625 -1.9375 C 3.160156 -1.570312 3.53125 -1.390625 4 -1.390625 C 4.351562 -1.390625 4.644531 -1.488281 4.875 -1.6875 C 5.101562 -1.882812 5.289062 -2.128906 5.4375 -2.421875 L 7.421875 -2.109375 C 7.148438 -1.335938 6.707031 -0.75 6.09375 -0.34375 C 5.488281 0.0507812 4.789062 0.25 4 0.25 C 2.875 0.25 1.960938 -0.113281 1.265625 -0.84375 C 0.578125 -1.570312 0.234375 -2.523438 0.234375 -3.703125 C 0.234375 -4.941406 0.5625 -5.929688 1.21875 -6.671875 C 1.875 -7.410156 2.765625 -7.78125 3.890625 -7.78125 C 5.015625 -7.78125 5.890625 -7.414062 6.515625 -6.6875 C 7.148438 -5.96875 7.46875 -4.941406 7.46875 -3.609375 L 7.46875 -3.421875 Z M 5.4375 -4.765625 C 5.363281 -5.234375 5.191406 -5.601562 4.921875 -5.875 C 4.660156 -6.144531 4.351562 -6.28125 4 -6.28125 C 3.65625 -6.28125 3.347656 -6.15625 3.078125 -5.90625 C 2.816406 -5.664062 2.644531 -5.285156 2.5625 -4.765625 Z M 5.4375 -4.765625 "/></g></g></g><g fill="#ffffff" fill-opacity="1"><g transform="translate(138.84518, 30.147593)"><g><path d="M 3 -11.25 L 3 0 L 0.8125 0 L 0.8125 -11.25 Z M 3 -11.25 "/></g></g></g><g fill="#ffffff" fill-opacity="1"><g transform="translate(142.636039, 30.147593)"><g><path d="M 7.3125 0 L 5.21875 0 L 5.21875 -4.234375 C 5.21875 -4.773438 5.140625 -5.1875 4.984375 -5.46875 C 4.828125 -5.75 4.53125 -5.890625 4.09375 -5.890625 C 3.6875 -5.890625 3.375 -5.734375 3.15625 -5.421875 C 2.9375 -5.109375 2.828125 -4.566406 2.828125 -3.796875 L 2.828125 0 L 0.75 0 L 0.75 -7.328125 L 2.828125 -7.328125 L 2.828125 -6.65625 L 2.859375 -6.65625 C 3.078125 -6.976562 3.351562 -7.207031 3.6875 -7.34375 C 4.03125 -7.488281 4.394531 -7.5625 4.78125 -7.5625 C 5.625 -7.5625 6.253906 -7.304688 6.671875 -6.796875 C 7.097656 -6.285156 7.3125 -5.53125 7.3125 -4.53125 Z M 7.3125 0 "/></g></g></g><g fill="#ffffff" fill-opacity="1"><g transform="translate(150.69535, 30.147593)"><g><path d="M 3.09375 -9.796875 L 3.09375 -7.328125 L 4.375 -7.328125 L 4.375 -5.5625 L 3.09375 -5.5625 L 3.09375 0 L 1 0 L 1 -5.5625 L 0.28125 -5.5625 L 0.28125 -7.328125 L 1 -7.328125 L 1 -9.796875 Z M 3.09375 -9.796875 "/></g></g></g><g fill="#ffffff" fill-opacity="1"><g transform="translate(154.784702, 30.147593)"><g><path d="M 2.4375 -3.328125 C 2.4375 -2.722656 2.5625 -2.242188 2.8125 -1.890625 C 3.070312 -1.535156 3.425781 -1.359375 3.875 -1.359375 C 4.226562 -1.359375 4.515625 -1.453125 4.734375 -1.640625 C 4.960938 -1.828125 5.144531 -2.066406 5.28125 -2.359375 L 7.203125 -2.046875 C 6.941406 -1.296875 6.515625 -0.726562 5.921875 -0.34375 C 5.335938 0.0390625 4.65625 0.234375 3.875 0.234375 C 2.789062 0.234375 1.910156 -0.113281 1.234375 -0.8125 C 0.554688 -1.519531 0.21875 -2.445312 0.21875 -3.59375 C 0.21875 -4.800781 0.535156 -5.765625 1.171875 -6.484375 C 1.816406 -7.203125 2.6875 -7.5625 3.78125 -7.5625 C 4.875 -7.5625 5.722656 -7.207031 6.328125 -6.5 C 6.941406 -5.800781 7.25 -4.800781 7.25 -3.5 L 7.25 -3.328125 Z M 5.28125 -4.625 C 5.207031 -5.082031 5.039062 -5.441406 4.78125 -5.703125 C 4.53125 -5.972656 4.226562 -6.109375 3.875 -6.109375 C 3.550781 -6.109375 3.257812 -5.988281 3 -5.75 C 2.738281 -5.507812 2.566406 -5.132812 2.484375 -4.625 Z M 5.28125 -4.625 "/></g></g></g><g fill="#ffffff" fill-opacity="1"><g transform="translate(162.261953, 30.147593)"><g><path d="M 5.296875 -5.453125 C 5.035156 -5.628906 4.75 -5.71875 4.4375 -5.71875 C 3.894531 -5.71875 3.488281 -5.535156 3.21875 -5.171875 C 2.957031 -4.804688 2.828125 -4.207031 2.828125 -3.375 L 2.828125 0 L 0.75 0 L 0.75 -7.328125 L 2.828125 -7.328125 L 2.828125 -6.5625 L 2.859375 -6.5625 C 3.066406 -6.882812 3.328125 -7.128906 3.640625 -7.296875 C 3.953125 -7.472656 4.300781 -7.5625 4.6875 -7.5625 C 4.976562 -7.550781 5.265625 -7.492188 5.546875 -7.390625 Z M 5.296875 -5.453125 "/></g></g></g><g fill="#ffffff" fill-opacity="1"><g transform="translate(167.739297, 30.147593)"><g><path d="M 7.3125 0 L 5.21875 0 L 5.21875 -4.234375 C 5.21875 -4.773438 5.140625 -5.1875 4.984375 -5.46875 C 4.828125 -5.75 4.53125 -5.890625 4.09375 -5.890625 C 3.6875 -5.890625 3.375 -5.734375 3.15625 -5.421875 C 2.9375 -5.109375 2.828125 -4.566406 2.828125 -3.796875 L 2.828125 0 L 0.75 0 L 0.75 -7.328125 L 2.828125 -7.328125 L 2.828125 -6.65625 L 2.859375 -6.65625 C 3.078125 -6.976562 3.351562 -7.207031 3.6875 -7.34375 C 4.03125 -7.488281 4.394531 -7.5625 4.78125 -7.5625 C 5.625 -7.5625 6.253906 -7.304688 6.671875 -6.796875 C 7.097656 -6.285156 7.3125 -5.53125 7.3125 -4.53125 Z M 7.3125 0 "/></g></g></g><g fill="#ffffff" fill-opacity="1"><g transform="translate(175.798609, 30.147593)"><g><path d="M 5.609375 -7.328125 L 7.671875 -7.328125 L 7.671875 0 L 5.609375 0 L 5.609375 -0.671875 L 5.578125 -0.671875 C 5.359375 -0.378906 5.066406 -0.15625 4.703125 0 C 4.335938 0.15625 3.96875 0.234375 3.59375 0.234375 C 2.632812 0.234375 1.832031 -0.144531 1.1875 -0.90625 C 0.539062 -1.664062 0.21875 -2.597656 0.21875 -3.703125 C 0.21875 -4.390625 0.359375 -5.023438 0.640625 -5.609375 C 0.921875 -6.191406 1.316406 -6.660156 1.828125 -7.015625 C 2.335938 -7.378906 2.914062 -7.5625 3.5625 -7.5625 C 3.945312 -7.5625 4.316406 -7.484375 4.671875 -7.328125 C 5.035156 -7.171875 5.347656 -6.941406 5.609375 -6.640625 Z M 4.0625 -5.71875 C 3.59375 -5.71875 3.1875 -5.515625 2.84375 -5.109375 C 2.507812 -4.703125 2.34375 -4.222656 2.34375 -3.671875 C 2.34375 -3.109375 2.507812 -2.625 2.84375 -2.21875 C 3.1875 -1.8125 3.597656 -1.609375 4.078125 -1.609375 C 4.566406 -1.609375 4.976562 -1.804688 5.3125 -2.203125 C 5.644531 -2.609375 5.8125 -3.097656 5.8125 -3.671875 C 5.8125 -4.234375 5.640625 -4.710938 5.296875 -5.109375 C 4.960938 -5.515625 4.550781 -5.71875 4.0625 -5.71875 Z M 4.0625 -5.71875 "/></g></g></g><g fill="#ffffff" fill-opacity="1"><g transform="translate(184.231038, 30.147593)"><g><path d="M 3.09375 -9.796875 L 3.09375 -7.328125 L 4.375 -7.328125 L 4.375 -5.5625 L 3.09375 -5.5625 L 3.09375 0 L 1 0 L 1 -5.5625 L 0.28125 -5.5625 L 0.28125 -7.328125 L 1 -7.328125 L 1 -9.796875 Z M 3.09375 -9.796875 "/></g></g></g><g fill="#ffffff" fill-opacity="1"><g transform="translate(188.32039, 30.147593)"><g><path d="M 0.65625 -10.40625 C 0.65625 -10.726562 0.773438 -11.015625 1.015625 -11.265625 C 1.253906 -11.515625 1.546875 -11.640625 1.890625 -11.640625 C 2.242188 -11.640625 2.539062 -11.515625 2.78125 -11.265625 C 3.019531 -11.015625 3.140625 -10.726562 3.140625 -10.40625 C 3.140625 -10.050781 3.019531 -9.753906 2.78125 -9.515625 C 2.539062 -9.273438 2.242188 -9.15625 1.890625 -9.15625 C 1.546875 -9.15625 1.253906 -9.273438 1.015625 -9.515625 C 0.773438 -9.753906 0.65625 -10.050781 0.65625 -10.40625 Z M 2.9375 -7.328125 L 2.9375 0 L 0.84375 0 L 0.84375 -7.328125 Z M 2.9375 -7.328125 "/></g></g></g><g fill="#ffffff" fill-opacity="1"><g transform="translate(192.096333, 30.147593)"><g><path d="M 0.234375 -3.65625 C 0.234375 -4.8125 0.597656 -5.75 1.328125 -6.46875 C 2.054688 -7.195312 2.976562 -7.5625 4.09375 -7.5625 C 5.226562 -7.5625 6.148438 -7.191406 6.859375 -6.453125 C 7.578125 -5.722656 7.9375 -4.789062 7.9375 -3.65625 C 7.9375 -2.507812 7.578125 -1.570312 6.859375 -0.84375 C 6.140625 -0.125 5.21875 0.234375 4.09375 0.234375 C 2.96875 0.234375 2.039062 -0.128906 1.3125 -0.859375 C 0.59375 -1.585938 0.234375 -2.519531 0.234375 -3.65625 Z M 4.078125 -5.71875 C 3.609375 -5.71875 3.203125 -5.515625 2.859375 -5.109375 C 2.523438 -4.703125 2.359375 -4.21875 2.359375 -3.65625 C 2.359375 -3.101562 2.523438 -2.625 2.859375 -2.21875 C 3.203125 -1.8125 3.613281 -1.609375 4.09375 -1.609375 C 4.582031 -1.609375 4.988281 -1.8125 5.3125 -2.21875 C 5.644531 -2.625 5.8125 -3.101562 5.8125 -3.65625 C 5.8125 -4.195312 5.648438 -4.675781 5.328125 -5.09375 C 5.003906 -5.507812 4.585938 -5.71875 4.078125 -5.71875 Z M 4.078125 -5.71875 "/></g></g></g><g fill="#ffffff" fill-opacity="1"><g transform="translate(200.275049, 30.147593)"><g><path d="M 7.3125 0 L 5.21875 0 L 5.21875 -4.234375 C 5.21875 -4.773438 5.140625 -5.1875 4.984375 -5.46875 C 4.828125 -5.75 4.53125 -5.890625 4.09375 -5.890625 C 3.6875 -5.890625 3.375 -5.734375 3.15625 -5.421875 C 2.9375 -5.109375 2.828125 -4.566406 2.828125 -3.796875 L 2.828125 0 L 0.75 0 L 0.75 -7.328125 L 2.828125 -7.328125 L 2.828125 -6.65625 L 2.859375 -6.65625 C 3.078125 -6.976562 3.351562 -7.207031 3.6875 -7.34375 C 4.03125 -7.488281 4.394531 -7.5625 4.78125 -7.5625 C 5.625 -7.5625 6.253906 -7.304688 6.671875 -6.796875 C 7.097656 -6.285156 7.3125 -5.53125 7.3125 -4.53125 Z M 7.3125 0 "/></g></g></g><g fill="#ffffff" fill-opacity="1"><g transform="translate(208.33436, 30.147593)"><g><path d="M 5.609375 -7.328125 L 7.671875 -7.328125 L 7.671875 0 L 5.609375 0 L 5.609375 -0.671875 L 5.578125 -0.671875 C 5.359375 -0.378906 5.066406 -0.15625 4.703125 0 C 4.335938 0.15625 3.96875 0.234375 3.59375 0.234375 C 2.632812 0.234375 1.832031 -0.144531 1.1875 -0.90625 C 0.539062 -1.664062 0.21875 -2.597656 0.21875 -3.703125 C 0.21875 -4.390625 0.359375 -5.023438 0.640625 -5.609375 C 0.921875 -6.191406 1.316406 -6.660156 1.828125 -7.015625 C 2.335938 -7.378906 2.914062 -7.5625 3.5625 -7.5625 C 3.945312 -7.5625 4.316406 -7.484375 4.671875 -7.328125 C 5.035156 -7.171875 5.347656 -6.941406 5.609375 -6.640625 Z M 4.0625 -5.71875 C 3.59375 -5.71875 3.1875 -5.515625 2.84375 -5.109375 C 2.507812 -4.703125 2.34375 -4.222656 2.34375 -3.671875 C 2.34375 -3.109375 2.507812 -2.625 2.84375 -2.21875 C 3.1875 -1.8125 3.597656 -1.609375 4.078125 -1.609375 C 4.566406 -1.609375 4.976562 -1.804688 5.3125 -2.203125 C 5.644531 -2.609375 5.8125 -3.097656 5.8125 -3.671875 C 5.8125 -4.234375 5.640625 -4.710938 5.296875 -5.109375 C 4.960938 -5.515625 4.550781 -5.71875 4.0625 -5.71875 Z M 4.0625 -5.71875 "/></g></g></g><g fill="#ffffff" fill-opacity="1"><g transform="translate(216.766789, 30.147593)"><g><path d="M 2.828125 -12.65625 L 2.828125 0 L 0.75 0 L 0.75 -12.65625 Z M 2.828125 -12.65625 "/></g></g></g></svg>